<svg width="16" height="20" viewBox="0 0 16 20" fill="none" xmlns="http://www.w3.org/2000/svg"><path fill-rule="evenodd" clip-rule="evenodd" d="M7.99999 10C10.7614 10 13 7.76142 13 5C13 2.23858 10.7614 0 7.99999 0C5.23856 0 2.99999 2.23858 2.99999 5C2.99999 7.76142 5.23856 10 7.99999 10ZM15.444 17.0698C16.0509 18.6115 14.6568 20 13 20H7.99999H2.99999C1.34313 20 -0.0509352 18.6115 0.555929 17.0698C0.573208 17.0259 0.590881 16.9822 0.608949 16.9385C1.01099 15.9679 1.60026 15.086 2.34313 14.3431C3.086 13.6003 3.96791 13.011 4.93852 12.609C5.90912 12.2069 6.94941 12 7.99999 12C9.05056 12 10.0908 12.2069 11.0615 12.609C12.0321 13.011 12.914 13.6003 13.6568 14.3431C14.3997 15.086 14.989 15.9679 15.391 16.9385C15.4091 16.9822 15.4268 17.0259 15.444 17.0698Z" fill="#3D3D3E"/></svg>