<svg width="20" height="20" viewBox="0 0 20 20" fill="none" xmlns="http://www.w3.org/2000/svg">
<path fill-rule="evenodd" clip-rule="evenodd" d="M18.385 15.5564C19.166 16.3374 19.166 17.6037 18.385 18.3848C17.6039 19.1658 16.3376 19.1658 15.5565 18.3848L10.0003 12.8285L4.34357 18.4852C3.56253 19.2663 2.2962 19.2663 1.51515 18.4852C0.734098 17.7042 0.734099 16.4379 1.51515 15.6568L7.17186 10.0001L1.4144 4.24264C0.633351 3.4616 0.633351 2.19527 1.4144 1.41422C2.19545 0.633168 3.46178 0.633168 4.24283 1.41422L10.0003 7.17168L15.6573 1.51468C16.4383 0.733632 17.7047 0.733632 18.4857 1.51468C19.2668 2.29573 19.2668 3.56206 18.4857 4.34311L12.8287 10.0001L18.385 15.5564Z" fill="#3D3D3E"/>
</svg>
