<svg width="23" height="14" viewBox="0 0 23 14" fill="none" xmlns="http://www.w3.org/2000/svg">
<path fill-rule="evenodd" clip-rule="evenodd" d="M0 1C0 0.447715 0.447715 0 1 0H22C22.5523 0 23 0.447715 23 1C23 1.55228 22.5523 2 22 2H1C0.447715 2 0 1.55228 0 1ZM0 7C0 6.44772 0.447715 6 1 6H22C22.5523 6 23 6.44772 23 7C23 7.55228 22.5523 8 22 8H1C0.447715 8 0 7.55228 0 7ZM1 12C0.447715 12 0 12.4477 0 13C0 13.5523 0.447715 14 1 14H22C22.5523 14 23 13.5523 23 13C23 12.4477 22.5523 12 22 12H1Z" fill="#3D3D3E"/>
</svg>
