<svg width="375" height="308" viewBox="0 0 375 308" fill="none" xmlns="http://www.w3.org/2000/svg">
<rect width="775" height="2.11452" transform="matrix(1 0 0 -1 -127 194.436)" fill="#3D3D3E" fill-opacity="0.7"/>
<path d="M646.365 193.378C638.081 178.999 631.65 187.387 629.47 193.378C626.745 203.951 618.57 218.752 607.67 193.378C596.77 168.003 587.868 182.805 584.779 193.378C581.691 209.59 573.77 232.285 566.794 193.378C559.818 154.471 548.991 177.167 544.449 193.378C538.999 213.466 531.051 206.594 525.374 193.378C523.999 190.178 512.838 155.845 503.573 193.378C500.522 205.738 488.313 218.224 479.048 193.378C469.783 168.532 463.321 185.449 462.153 193.378C452.888 256.285 439.28 207.248 435.447 193.378C421.277 142.101 417.462 169.59 405.472 193.378C400.93 202.389 398.387 216.638 389.667 193.378C384.999 180.929 378.124 180.162 371.137 193.378C360.236 213.995 359.691 211.88 350.971 193.378C342.251 174.876 336.256 168.004 330.806 193.378C326.017 215.674 320.451 218.223 311.186 193.378C301.921 168.533 294.291 170.119 286.661 193.378C278.034 219.674 275.215 234.611 262.68 193.378C250.145 152.145 242.61 188.626 241.425 193.378C233.25 226.153 226.8 197.131 226.165 193.378C220.17 157.96 212.54 141.572 198.369 193.378C189.491 225.839 174.117 209.766 165.669 193.378C155.859 174.347 150.409 176.462 141.689 193.378C127.839 220.246 121.871 207.388 116.618 193.378C107.898 170.118 102.993 164.304 92.093 193.378C84.5091 213.607 73.0809 193.378 65.9327 193.378C62.1176 193.378 56.6676 191.264 52.3075 193.378C45.3793 196.738 31.9242 200.779 28.8722 193.378C23.4221 180.162 16.337 160.603 3.80189 193.378C-3.82821 213.328 -12.5483 209.766 -21.2684 193.378C-29.9886 176.991 -40.3437 184.92 -47.9738 193.378C-51.2438 193.378 -59.9639 193.378 -75.2241 193.378C-88.3043 183.334 -99.7495 189.149 -107.38 193.378H-123.54" stroke="#A1CAC8" stroke-width="2"/>
<path d="M648 193.378C643.64 193.378 631.105 217.695 622.93 193.378C614.315 167.751 605.069 159.546 598.949 193.378C591.396 235.14 585.077 275.316 574.969 193.378C567.339 131.528 558.074 117.255 550.989 193.378C543.904 269.501 541.179 341.395 527.008 193.378C517.929 98.5387 512.838 70.2072 503.028 193.378C500.047 230.81 489.403 283.245 479.048 193.378C469.516 110.656 464.333 129.414 455.068 193.378C449.726 230.253 441.987 229.325 431.087 193.378C424.416 171.377 411.467 183.584 407.107 193.378C396.752 216.638 387.338 211.352 383.127 193.378C374.332 155.845 364.596 166.947 359.146 193.378C345.075 261.617 335.166 273.879 335.166 193.378C335.166 66.4893 311.186 66.4893 311.186 193.378C311.186 312.292 289.609 345.322 287.205 193.378C284.267 7.62064 258.751 7.62064 263.225 193.378C265.667 294.734 239.245 385.619 239.245 193.378C239.245 -62.6089 215.264 -63.6424 215.264 193.378C215.264 353.58 199.803 254.17 191.284 193.378C183.654 138.929 173.844 134.7 167.304 193.378C153.988 312.849 151.756 236.726 143.324 193.378C134.891 150.03 127.518 170.118 119.343 193.378C107.858 226.054 99.984 238.841 95.3629 193.378C91.5479 155.845 86.6428 28.4452 71.3826 193.378C65.7447 254.313 54.2131 259.911 47.4023 193.378C39.7722 118.841 29.9621 151.616 22.877 193.378C13.9551 245.966 1.62171 238.84 -1.64833 193.378C-4.1579 158.488 -18.5436 159.017 -26.1737 193.378C-33.8038 227.739 -45.2489 212.409 -49.609 193.378C-53.969 174.347 -64.8692 170.647 -73.5893 193.378C-81.5674 214.175 -90.4845 215.052 -97.5696 193.378C-104.655 171.704 -121.55 183.334 -121.55 193.378C-130.46 193.378 -123.252 193.217 -121.81 193.137" stroke="#F69887" stroke-width="2"/>
</svg>
